solid Created by writeSTL.m 14-Dec-2022 20:17:52
facet normal -4.2689450955448421E-07 9.9999999999989009E-01 1.9325078693973147E-07
outer loop
vertex 5.3183000000000000E+01 2.8218900000000000E-17 8.2854399999999998E+01
vertex 4.2284487216870325E+01 -4.6525152693997116E-06 8.2854399999999998E+01
vertex 5.7067282153546216E+01 9.3203048382713077E-17 9.1434850051991219E+01
endloop
endfacet
facet normal -4.3903717607093818E-07 9.9999999999988065E-01 2.1417073263134098E-07
outer loop
vertex 4.2284487216870325E+01 -4.6525152693997116E-06 8.2854399999999998E+01
vertex 4.5372812966403906E+01 -5.1343067274789697E-06 9.1434850051991219E+01
vertex 5.7067282153546216E+01 9.3203048382713077E-17 9.1434850051991219E+01
endloop
endfacet
facet normal -4.3903717607094046E-07 9.9999999999988565E-01 1.8991114801890929E-07
outer loop
vertex 5.7067282153546216E+01 9.3203048382713077E-17 9.1434850051991219E+01
vertex 4.5372812966403906E+01 -5.1343067274789697E-06 9.1434850051991219E+01
vertex 6.0790320693862313E+01 1.2260483459965201E-16 1.0004178199972239E+02
endloop
endfacet
facet normal -4.5094445689957377E-07 9.9999999999987610E-01 2.1124053638904921E-07
outer loop
vertex 4.5372812966403906E+01 -5.1343067274789697E-06 9.1434850051991219E+01
vertex 4.8332926760771997E+01 -5.6175927414195532E-06 1.0004178199972240E+02
vertex 6.0790320693862313E+01 1.2260483459965201E-16 1.0004178199972239E+02
endloop
endfacet
facet normal -4.5094445689957615E-07 9.9999999999988110E-01 1.8604131669227007E-07
outer loop
vertex 6.0790320693862313E+01 1.2260483459965201E-16 1.0004178199972239E+02
vertex 4.8332926760771997E+01 -5.6175927414195532E-06 1.0004178199972240E+02
vertex 6.4352115620948311E+01 1.1642425865081681E-16 1.0867519584319352E+02
endloop
endfacet
facet normal -4.6274668183316153E-07 9.9999999999987144E-01 2.0794019396251883E-07
outer loop
vertex 4.8332926760771997E+01 -5.6175927414195532E-06 1.0004178199972240E+02
vertex 5.1164828599974598E+01 -6.1023733112214640E-06 1.0867519584319352E+02
vertex 6.4352115620948311E+01 1.1642425865081681E-16 1.0867519584319352E+02
endloop
endfacet
facet normal -4.6274668183316386E-07 9.9999999999987632E-01 1.8171048293421385E-07
outer loop
vertex 6.4352115620948311E+01 1.1642425865081681E-16 1.0867519584319352E+02
vertex 5.1164828599974598E+01 -6.1023733112214640E-06 1.0867519584319352E+02
vertex 6.7752666934804211E+01 7.4661320536207540E-17 1.1733509158240460E+02
endloop
endfacet
facet normal -4.7454465502941318E-07 9.9999999999986644E-01 2.0430923907996920E-07
outer loop
vertex 5.1164828599974598E+01 -6.1023733112214640E-06 1.0867519584319352E+02
vertex 5.3868518484011723E+01 -6.5886484368847037E-06 1.1733509158240462E+02
vertex 6.7752666934804211E+01 7.4661320536207540E-17 1.1733509158240460E+02
endloop
endfacet
facet normal -4.7454465502941630E-07 9.9999999999987288E-01 1.6988727088519397E-07
outer loop
vertex 6.7752666934804211E+01 7.4661320536207540E-17 1.1733509158240460E+02
vertex 5.3868518484011723E+01 -6.5886484368847037E-06 1.1733509158240462E+02
vertex 7.0864794413767569E+01 1.4110008252820585E-17 1.2602817054751908E+02
endloop
endfacet
facet normal -4.8731822246939147E-07 9.9999999999986222E-01 1.9486151507283737E-07
outer loop
vertex 5.3868518484011723E+01 -6.5886484368847037E-06 1.1733509158240462E+02
vertex 5.6342883121672521E+01 -7.0767919977088144E-06 1.2602817054751911E+02
vertex 7.0864794413767569E+01 1.4110008252820585E-17 1.2602817054751908E+02
endloop
endfacet
facet normal -4.8731822246939623E-07 9.9999999999987144E-01 1.3950926997809669E-07
outer loop
vertex 7.0864794413767569E+01 1.4110008252820585E-17 1.2602817054751908E+02
vertex 5.6342883121672521E+01 -7.0767919977088144E-06 1.2602817054751911E+02
vertex 7.3367783172114329E+01 -2.2879681706933379E-17 1.3477133172101614E+02
endloop
endfacet
facet normal -5.0334729155803201E-07 9.9999999999985889E-01 1.7072147043060100E-07
outer loop
vertex 5.6342883121672521E+01 -7.0767919977088144E-06 1.2602817054751911E+02
vertex 5.8332941532329798E+01 -7.5677468184134137E-06 1.3477133172101614E+02
vertex 7.3367783172114329E+01 -2.2879681706933379E-17 1.3477133172101614E+02
endloop
endfacet
facet normal -5.0334729155803657E-07 9.9999999999986766E-01 1.0750771048965985E-07
outer loop
vertex 7.3367783172114329E+01 -2.2879681706933379E-17 1.3477133172101614E+02
vertex 5.8332941532329798E+01 -7.5677468184134137E-06 1.3477133172101614E+02
vertex 7.5246068109910965E+01 -3.4252397512092432E-17 1.4356539525301272E+02
endloop
endfacet
facet normal -5.2280737640859320E-07 9.9999999999985278E-01 1.4493419451385726E-07
outer loop
vertex 5.8332941532329798E+01 -7.5677468184134137E-06 1.3477133172101614E+02
vertex 5.9826318847771063E+01 -8.0615586566531420E-06 1.4356539525301272E+02
vertex 7.5246068109910965E+01 -3.4252397512092432E-17 1.4356539525301272E+02
endloop
endfacet
facet normal -5.2280737640859722E-07 9.9999999999986056E-01 7.4096549734911669E-08
outer loop
vertex 7.5246068109910965E+01 -3.4252397512092432E-17 1.4356539525301272E+02
vertex 5.9826318847771063E+01 -8.0615586566531420E-06 1.4356539525301272E+02
vertex 7.6499649227157448E+01 -2.0008139162656529E-17 1.5241036114350891E+02
endloop
endfacet
facet normal -5.4592251279943283E-07 9.9999999999984424E-01 1.1767007060323136E-07
outer loop
vertex 5.9826318847771063E+01 -8.0615586566531420E-06 1.4356539525301272E+02
vertex 6.0823015067996330E+01 -8.5582275124280036E-06 1.5241036114350891E+02
vertex 7.6499649227157448E+01 -2.0008139162656529E-17 1.5241036114350891E+02
endloop
endfacet
facet normal -5.4592251279943612E-07 9.9999999999985023E-01 3.8593003448976151E-08
outer loop
vertex 7.6499649227157448E+01 -2.0008139162656529E-17 1.5241036114350891E+02
vertex 6.0823015067996330E+01 -8.5582275124280036E-06 1.5241036114350891E+02
vertex 7.7128526523853807E+01 1.9853093341374275E-17 1.6130622939250469E+02
endloop
endfacet
facet normal -5.7307617528454001E-07 9.9999999999983180E-01 8.8363789428128514E-08
outer loop
vertex 6.0823015067996330E+01 -8.5582275124280036E-06 1.5241036114350891E+02
vertex 6.1323030193005593E+01 -9.0577533857379958E-06 1.6130622939250469E+02
vertex 7.7128526523853807E+01 1.9853093341374275E-17 1.6130622939250469E+02
endloop
endfacet
facet normal -5.7307617528454223E-07 9.9999999999983580E-01 2.6732770816984364E-10
outer loop
vertex 7.7128526523853807E+01 1.9853093341374275E-17 1.6130622939250469E+02
vertex 6.1323030193005593E+01 -9.0577533857379958E-06 1.6130622939250469E+02
vertex 7.7132700000000000E+01 8.5331299999999998E-17 1.7025299999999999E+02
endloop
endfacet
facet normal -6.0482938053587981E-07 9.9999999999981548E-01 5.6377818561370588E-08
outer loop
vertex 6.1323030193005593E+01 -9.0577533857379958E-06 1.6130622939250469E+02
vertex 6.1326364222798851E+01 -9.5601362765831170E-06 1.7025299999999999E+02
vertex 7.7132700000000000E+01 8.5331299999999998E-17 1.7025299999999999E+02
endloop
endfacet
facet normal -1.0257562483099640E-05 9.9999999994036715E-01 3.7481117665376358E-06
outer loop
vertex 4.2284487216870325E+01 -4.6525152693997116E-06 8.2854399999999998E+01
vertex 3.1385750138257439E+01 -1.1644699184681295E-04 8.2854400000000027E+01
vertex 4.5372812966403906E+01 -5.1343067274789697E-06 9.1434850051991219E+01
endloop
endfacet
facet normal -1.0549342157671050E-05 9.9999999993543576E-01 4.2237442352341110E-06
outer loop
vertex 3.1385750138257439E+01 -1.1644699184681295E-04 8.2854400000000027E+01
vertex 3.3678055159101007E+01 -1.2850630829577757E-04 9.1434850051991233E+01
vertex 4.5372812966403906E+01 -5.1343067274789697E-06 9.1434850051991219E+01
endloop
endfacet
facet normal -1.0549342157693549E-05 9.9999999993756850E-01 3.6843023099267022E-06
outer loop
vertex 4.5372812966403906E+01 -5.1343067274789697E-06 9.1434850051991219E+01
vertex 3.3678055159101007E+01 -1.2850630829577757E-04 9.1434850051991233E+01
vertex 4.8332926760771997E+01 -5.6175927414195532E-06 1.0004178199972240E+02
endloop
endfacet
facet normal -1.0835460019723352E-05 9.9999999993259592E-01 4.1714701598720938E-06
outer loop
vertex 3.3678055159101007E+01 -1.2850630829577757E-04 9.1434850051991233E+01
vertex 3.5875199047204880E+01 -1.4060280332747407E-04 1.0004178199972236E+02
vertex 4.8332926760771997E+01 -5.6175927414195532E-06 1.0004178199972240E+02
endloop
endfacet
facet normal -1.0835460019747007E-05 9.9999999993477895E-01 3.6103608947079158E-06
outer loop
vertex 4.8332926760771997E+01 -5.6175927414195532E-06 1.0004178199972240E+02
vertex 3.5875199047204880E+01 -1.4060280332747407E-04 1.0004178199972236E+02
vertex 5.1164828599974598E+01 -6.1023733112214640E-06 1.0867519584319352E+02
endloop
endfacet
facet normal -1.1119049961910167E-05 9.9999999992972677E-01 4.1125938745997135E-06
outer loop
vertex 3.5875199047204880E+01 -1.4060280332747407E-04 1.0004178199972236E+02
vertex 3.7977181802569071E+01 -1.5273647694190247E-04 1.0867519584319349E+02
vertex 5.1164828599974598E+01 -6.1023733112214640E-06 1.0867519584319352E+02
endloop
endfacet
facet normal -1.1119049961935013E-05 9.9999999993196131E-01 3.5276103717387452E-06
outer loop
vertex 5.1164828599974598E+01 -6.1023733112214640E-06 1.0867519584319352E+02
vertex 3.7977181802569071E+01 -1.5273647694190247E-04 1.0867519584319349E+02
vertex 5.3868518484011723E+01 -6.5886484368847037E-06 1.1733509158240462E+02
endloop
endfacet
facet normal -1.1402535848023007E-05 9.9999999992679856E-01 4.0478209835845569E-06
outer loop
vertex 3.7977181802569071E+01 -1.5273647694190247E-04 1.0867519584319349E+02
vertex 3.9984003425193592E+01 -1.6490732913906282E-04 1.1733509158240460E+02
vertex 5.3868518484011723E+01 -6.5886484368847037E-06 1.1733509158240462E+02
endloop
endfacet
facet normal -1.1402535848054270E-05 9.9999999992954047E-01 3.3017271737732058E-06
outer loop
vertex 5.3868518484011723E+01 -6.5886484368847037E-06 1.1733509158240462E+02
vertex 3.9984003425193592E+01 -1.6490732913906282E-04 1.1733509158240460E+02
vertex 5.6342883121672521E+01 -7.0767919977088144E-06 1.2602817054751911E+02
endloop
endfacet
facet normal -1.1709462271143903E-05 9.9999999992391975E-01 3.8793099211553790E-06
outer loop
vertex 3.9984003425193592E+01 -1.6490732913906282E-04 1.1733509158240460E+02
vertex 4.1820609594007664E+01 -1.7712480597406954E-04 1.2602817054751908E+02
vertex 5.6342883121672521E+01 -7.0767919977088144E-06 1.2602817054751911E+02
endloop
endfacet
facet normal -1.1709462271188650E-05 9.9999999992774136E-01 2.7213805425258336E-06
outer loop
vertex 5.6342883121672521E+01 -7.0767919977088144E-06 1.2602817054751911E+02
vertex 4.1820609594007664E+01 -1.7712480597406954E-04 1.2602817054751908E+02
vertex 5.8332941532329798E+01 -7.5677468184134137E-06 1.3477133172101614E+02
endloop
endfacet
facet normal -1.2094609968816697E-05 9.9999999992091315E-01 3.4487703851093837E-06
outer loop
vertex 4.1820609594007664E+01 -1.7712480597406954E-04 1.2602817054751908E+02
vertex 4.3297733159680519E+01 -1.8941272789987514E-04 1.3477133172101611E+02
vertex 5.8332941532329798E+01 -7.5677468184134137E-06 1.3477133172101614E+02
endloop
endfacet
facet normal -1.2094609968861695E-05 9.9999999992463395E-01 2.1100175063890544E-06
outer loop
vertex 5.8332941532329798E+01 -7.5677468184134137E-06 1.3477133172101614E+02
vertex 4.3297733159680519E+01 -1.8941272789987514E-04 1.3477133172101611E+02
vertex 5.9826318847771063E+01 -8.0615586566531420E-06 1.4356539525301272E+02
endloop
endfacet
facet normal -1.2562195525311205E-05 9.9999999991662913E-01 2.9888521781674815E-06
outer loop
vertex 4.3297733159680519E+01 -1.8941272789987514E-04 1.3477133172101611E+02
vertex 4.4406188511488700E+01 -2.0177225098296468E-04 1.4356539525301267E+02
vertex 5.9826318847771063E+01 -8.0615586566531420E-06 1.4356539525301272E+02
endloop
endfacet
facet normal -1.2562195525353704E-05 9.9999999992001276E-01 1.4717254780567268E-06
outer loop
vertex 5.9826318847771063E+01 -8.0615586566531420E-06 1.4356539525301272E+02
vertex 4.4406188511488700E+01 -2.0177225098296468E-04 1.4356539525301267E+02
vertex 6.0823015067996330E+01 -8.5582275124280036E-06 1.5241036114350891E+02
endloop
endfacet
facet normal -1.3117600983324517E-05 9.9999999991083277E-01 2.5025937919317786E-06
outer loop
vertex 4.4406188511488700E+01 -2.0177225098296468E-04 1.4356539525301267E+02
vertex 4.5145975649432238E+01 -2.1420337522333832E-04 1.5241036114350888E+02
vertex 6.0823015067996330E+01 -8.5582275124280036E-06 1.5241036114350891E+02
endloop
endfacet
facet normal -1.3117600983361463E-05 9.9999999991364930E-01 7.9346102833534848E-07
outer loop
vertex 6.0823015067996330E+01 -8.5582275124280036E-06 1.5241036114350891E+02
vertex 4.5145975649432238E+01 -2.1420337522333832E-04 1.5241036114350888E+02
vertex 6.1323030193005593E+01 -9.0577533857379958E-06 1.6130622939250469E+02
endloop
endfacet
facet normal -1.3770038829321618E-05 9.9999999990323307E-01 1.9799132471749468E-06
outer loop
vertex 4.5145975649432238E+01 -2.1420337522333832E-04 1.5241036114350888E+02
vertex 4.5517094573511109E+01 -2.2670610062099580E-04 1.6130622939250466E+02
vertex 6.1323030193005593E+01 -9.0577533857379958E-06 1.6130622939250469E+02
endloop
endfacet
facet normal -1.3770038829348579E-05 9.9999999990519117E-01 6.1283856998582416E-08
outer loop
vertex 6.1323030193005593E+01 -9.0577533857379958E-06 1.6130622939250469E+02
vertex 4.5517094573511109E+01 -2.2670610062099580E-04 1.6130622939250466E+02
vertex 6.1326364222798851E+01 -9.5601362765831170E-06 1.7025299999999999E+02
endloop
endfacet
facet normal -1.4532986792618453E-05 9.9999999989340282E-01 1.4094407072662360E-06
outer loop
vertex 4.5517094573511109E+01 -2.2670610062099580E-04 1.6130622939250466E+02
vertex 4.5519545283725328E+01 -2.3928042717593734E-04 1.7025299999999996E+02
vertex 6.1326364222798851E+01 -9.5601362765831170E-06 1.7025299999999999E+02
endloop
endfacet
facet normal -1.2843639955146719E-04 9.9999999111416538E-01 3.5717790796018306E-05
outer loop
vertex 3.1385750138257439E+01 -1.1644699184681295E-04 8.2854400000000027E+01
vertex 2.0482902750062134E+01 -1.5167694676887686E-03 8.2854399999999998E+01
vertex 3.3678055159101007E+01 -1.2850630829577757E-04 9.1434850051991233E+01
endloop
endfacet
facet normal -1.3209031209498475E-04 9.9999999042170773E-01 4.1336835667812346E-05
outer loop
vertex 2.0482902750062134E+01 -1.5167694676887686E-03 8.2854399999999998E+01
vertex 2.1978923042952161E+01 -1.6738483355600749E-03 9.1434850051991219E+01
vertex 3.3678055159101007E+01 -1.2850630829577757E-04 9.1434850051991233E+01
endloop
endfacet
facet normal -1.3209031212635438E-04 9.9999999065919420E-01 3.5124934032335645E-05
outer loop
vertex 3.3678055159101007E+01 -1.2850630829577757E-04 9.1434850051991233E+01
vertex 2.1978923042952161E+01 -1.6738483355600749E-03 9.1434850051991219E+01
vertex 3.5875199047204880E+01 -1.4060280332747407E-04 1.0004178199972236E+02
endloop
endfacet
facet normal -1.3567322881326635E-04 9.9999998995958517E-01 4.0909713156488986E-05
outer loop
vertex 2.1978923042952161E+01 -1.6738483355600749E-03 9.1434850051991219E+01
vertex 2.3412833088363740E+01 -1.8314122485924194E-03 1.0004178199972240E+02
vertex 3.5875199047204880E+01 -1.4060280332747407E-04 1.0004178199972236E+02
endloop
endfacet
facet normal -1.3567322884634601E-04 9.9999999020340369E-01 3.4437878953294793E-05
outer loop
vertex 3.5875199047204880E+01 -1.4060280332747407E-04 1.0004178199972236E+02
vertex 2.3412833088363740E+01 -1.8314122485924194E-03 1.0004178199972240E+02
vertex 3.7977181802569071E+01 -1.5273647694190247E-04 1.0867519584319349E+02
endloop
endfacet
facet normal -1.3922440024280360E-04 9.9999998949104663E-01 4.0428614564428440E-05
outer loop
vertex 2.3412833088363740E+01 -1.8314122485924194E-03 1.0004178199972240E+02
vertex 2.4784632886296880E+01 -1.9894612067858026E-03 1.0867519584319352E+02
vertex 3.7977181802569071E+01 -1.5273647694190247E-04 1.0867519584319349E+02
endloop
endfacet
facet normal -1.3922440027767073E-04 9.9999998974148474E-01 3.3668926015618241E-05
outer loop
vertex 3.7977181802569071E+01 -1.5273647694190247E-04 1.0867519584319349E+02
vertex 2.4784632886296880E+01 -1.9894612067858026E-03 1.0867519584319352E+02
vertex 3.9984003425193592E+01 -1.6490732913906282E-04 1.1733509158240460E+02
endloop
endfacet
facet normal -1.4277418328475339E-04 9.9999998901178866E-01 3.9899309176514582E-05
outer loop
vertex 2.4784632886296880E+01 -1.9894612067858026E-03 1.0867519584319352E+02
vertex 2.6094322436751586E+01 -2.1479952101402253E-03 1.1733509158240460E+02
vertex 3.9984003425193592E+01 -1.6490732913906282E-04 1.1733509158240460E+02
endloop
endfacet
facet normal -1.4277418332725106E-04 9.9999998930944489E-01 3.1569645651666004E-05
outer loop
vertex 3.9984003425193592E+01 -1.6490732913906282E-04 1.1733509158240460E+02
vertex 2.6094322436751586E+01 -2.1479952101402253E-03 1.1733509158240460E+02
vertex 4.1820609594007664E+01 -1.7712480597406954E-04 1.2602817054751908E+02
endloop
endfacet
facet normal -1.4661740289076072E-04 9.9999998850968630E-01 3.8522254305389655E-05
outer loop
vertex 2.6094322436751586E+01 -2.1479952101402253E-03 1.1733509158240460E+02
vertex 2.7292921772020083E+01 -2.3071366889161251E-03 1.2602817054751908E+02
vertex 4.1820609594007664E+01 -1.7712480597406954E-04 1.2602817054751908E+02
endloop
endfacet
facet normal -1.4661740294931880E-04 9.9999998890908026E-01 2.6175880586240522E-05
outer loop
vertex 4.1820609594007664E+01 -1.7712480597406954E-04 1.2602817054751908E+02
vertex 2.7292921772020083E+01 -2.3071366889161251E-03 1.2602817054751908E+02
vertex 4.3297733159680519E+01 -1.8941272789987514E-04 1.3477133172101611E+02
endloop
endfacet
facet normal -1.5144002189225220E-04 9.9999998792032219E-01 3.5003935695654906E-05
outer loop
vertex 2.7292921772020083E+01 -2.3071366889161251E-03 1.2602817054751908E+02
vertex 2.8256916366488021E+01 -2.4671943798531709E-03 1.3477133172101614E+02
vertex 4.3297733159680519E+01 -1.8941272789987514E-04 1.3477133172101611E+02
endloop
endfacet
facet normal -1.5144002195322786E-04 9.9999998832296122E-01 2.0493828034678047E-05
outer loop
vertex 4.3297733159680519E+01 -1.8941272789987514E-04 1.3477133172101611E+02
vertex 2.8256916366488021E+01 -2.4671943798531709E-03 1.3477133172101614E+02
vertex 4.4406188511488700E+01 -2.0177225098296468E-04 1.4356539525301267E+02
endloop
endfacet
facet normal -1.5729485085312227E-04 9.9999998714102301E-01 3.1245538845087971E-05
outer loop
vertex 2.8256916366488021E+01 -2.4671943798531709E-03 1.3477133172101614E+02
vertex 2.8980311749614710E+01 -2.6281832667217442E-03 1.4356539525301272E+02
vertex 4.4406188511488700E+01 -2.0177225098296468E-04 1.4356539525301267E+02
endloop
endfacet
facet normal -1.5729485091322840E-04 9.9999998752314645E-01 1.4561484266888376E-05
outer loop
vertex 4.4406188511488700E+01 -2.0177225098296468E-04 1.4356539525301267E+02
vertex 2.8980311749614710E+01 -2.6281832667217442E-03 1.4356539525301272E+02
vertex 4.5145975649432238E+01 -2.1420337522333832E-04 1.5241036114350888E+02
endloop
endfacet
facet normal -1.6424929313088823E-04 9.9999998613920660E-01 2.7271898329987394E-05
outer loop
vertex 2.8980311749614710E+01 -2.6281832667217442E-03 1.4356539525301272E+02
vertex 2.9463107921400148E+01 -2.7901033495218463E-03 1.5241036114350891E+02
vertex 4.5145975649432238E+01 -2.1420337522333832E-04 1.5241036114350888E+02
endloop
endfacet
facet normal -1.6424929318636908E-04 9.9999998647699062E-01 8.2576252413490757E-06
outer loop
vertex 4.5145975649432238E+01 -2.1420337522333832E-04 1.5241036114350888E+02
vertex 2.9463107921400148E+01 -2.7901033495218463E-03 1.5241036114350891E+02
vertex 4.5517094573511109E+01 -2.2670610062099580E-04 1.6130622939250466E+02
endloop
endfacet
facet normal -1.7241871663806039E-04 9.9999998487137853E-01 2.3000629014985420E-05
outer loop
vertex 2.9463107921400148E+01 -2.7901033495218463E-03 1.5241036114350891E+02
vertex 2.9705304881844341E+01 -2.9529546282534747E-03 1.6130622939250469E+02
vertex 4.5517094573511109E+01 -2.2670610062099580E-04 1.6130622939250466E+02
endloop
endfacet
facet normal -1.7241871668348573E-04 9.9999998513483790E-01 1.4526889364116074E-06
outer loop
vertex 4.5517094573511109E+01 -2.2670610062099580E-04 1.6130622939250466E+02
vertex 2.9705304881844341E+01 -2.9529546282534747E-03 1.6130622939250469E+02
vertex 4.5519545283725328E+01 -2.3928042717593734E-04 1.7025299999999996E+02
endloop
endfacet
facet normal -1.8197190000430341E-04 9.9999998327495754E-01 1.8338820180147011E-05
outer loop
vertex 2.9705304881844341E+01 -2.9529546282534747E-03 1.6130622939250469E+02
vertex 2.9706902630947283E+01 -3.1167371029166319E-03 1.7025299999999999E+02
vertex 4.5519545283725328E+01 -2.3928042717593734E-04 1.7025299999999996E+02
endloop
endfacet
facet normal 3.6124767941074108E-04 9.9999993375200535E-01 -4.4677726619222005E-05
outer loop
vertex 2.0482902750062134E+01 -1.5167694676887686E-03 8.2854399999999998E+01
vertex 9.5967015623098817E+00 2.4158457095130549E-03 8.2854399999999998E+01
vertex 2.1978923042952161E+01 -1.6738483355600749E-03 9.1434850051991219E+01
endloop
endfacet
facet normal 3.7152392372508390E-04 9.9999992921443659E-01 -5.9507106299268397E-05
outer loop
vertex 9.5967015623098817E+00 2.4158457095130549E-03 8.2854399999999998E+01
vertex 1.0297604445039747E+01 2.6660412914206720E-03 9.1434850051991205E+01
vertex 2.1978923042952161E+01 -1.6738483355600749E-03 9.1434850051991219E+01
endloop
endfacet
facet normal 3.7152392402993597E-04 9.9999993003498178E-01 -4.3589049738887128E-05
outer loop
vertex 2.1978923042952161E+01 -1.6738483355600749E-03 9.1434850051991219E+01
vertex 1.0297604445039747E+01 2.6660412914206720E-03 9.1434850051991205E+01
vertex 2.3412833088363740E+01 -1.8314122485924194E-03 1.0004178199972240E+02
endloop
endfacet
facet normal 3.8159890812277048E-04 9.9999992545409566E-01 -5.8941296202567970E-05
outer loop
vertex 1.0297604445039747E+01 2.6660412914206720E-03 9.1434850051991205E+01
vertex 1.0969411735664139E+01 2.9169841068828139E-03 1.0004178199972236E+02
vertex 2.3412833088363740E+01 -1.8314122485924194E-03 1.0004178199972240E+02
endloop
endfacet
facet normal 3.8159890844378724E-04 9.9999992629533729E-01 -4.2327214422439077E-05
outer loop
vertex 2.3412833088363740E+01 -1.8314122485924194E-03 1.0004178199972240E+02
vertex 1.0969411735664139E+01 2.9169841068828139E-03 1.0004178199972236E+02
vertex 2.4784632886296880E+01 -1.9894612067858026E-03 1.0867519584319352E+02
endloop
endfacet
facet normal 3.9158331806112213E-04 9.9999992163155327E-01 -5.8304306718194066E-05
outer loop
vertex 1.0969411735664139E+01 2.9169841068828139E-03 1.0004178199972236E+02
vertex 1.1612123434183049E+01 3.1686741558994811E-03 1.0867519584319349E+02
vertex 2.4784632886296880E+01 -1.9894612067858026E-03 1.0867519584319352E+02
endloop
endfacet
facet normal 3.9158331839893431E-04 9.9999992249423575E-01 -4.0914879329091944E-05
outer loop
vertex 2.4784632886296880E+01 -1.9894612067858026E-03 1.0867519584319352E+02
vertex 1.1612123434183049E+01 3.1686741558994811E-03 1.0867519584319349E+02
vertex 2.6094322436751586E+01 -2.1479952101402253E-03 1.1733509158240460E+02
endloop
endfacet
facet normal 4.0156274307583340E-04 9.9999991771458119E-01 -5.7603768418073485E-05
outer loop
vertex 1.1612123434183049E+01 3.1686741558994811E-03 1.0867519584319349E+02
vertex 1.2225739540596489E+01 3.4211114384706731E-03 1.1733509158240460E+02
vertex 2.6094322436751586E+01 -2.1479952101402253E-03 1.1733509158240460E+02
endloop
endfacet
facet normal 4.0156274346629298E-04 9.9999991868693139E-01 -3.7060674686673826E-05
outer loop
vertex 2.6094322436751586E+01 -2.1479952101402253E-03 1.1733509158240460E+02
vertex 1.2225739540596489E+01 3.4211114384706731E-03 1.1733509158240460E+02
vertex 2.7292921772020083E+01 -2.3071366889161251E-03 1.2602817054751908E+02
endloop
endfacet
facet normal 4.1236789533729423E-04 9.9999991342017236E-01 -5.5788587213549455E-05
outer loop
vertex 1.2225739540596489E+01 3.4211114384706731E-03 1.1733509158240460E+02
vertex 1.2787310962535651E+01 3.6745120290629903E-03 1.2602817054751908E+02
vertex 2.7292921772020083E+01 -2.3071366889161251E-03 1.2602817054751908E+02
endloop
endfacet
facet normal 4.1236789582692140E-04 9.9999991460752746E-01 -2.7159827038275509E-05
outer loop
vertex 2.7292921772020083E+01 -2.3071366889161251E-03 1.2602817054751908E+02
vertex 1.2787310962535651E+01 3.6745120290629903E-03 1.2602817054751908E+02
vertex 2.8256916366488021E+01 -2.4671943798531709E-03 1.3477133172101614E+02
endloop
endfacet
facet normal 4.2593126976731179E-04 9.9999990798270100E-01 -5.1158021664705573E-05
outer loop
vertex 1.2787310962535651E+01 3.6745120290629903E-03 1.2602817054751908E+02
vertex 1.3238966158023930E+01 3.9294208103394556E-03 1.3477133172101611E+02
vertex 2.8256916366488021E+01 -2.4671943798531709E-03 1.3477133172101614E+02
endloop
endfacet
facet normal 4.2593127026506320E-04 9.9999990915131987E-01 -1.6730359254373487E-05
outer loop
vertex 2.8256916366488021E+01 -2.4671943798531709E-03 1.3477133172101614E+02
vertex 1.3238966158023930E+01 3.9294208103394556E-03 1.3477133172101611E+02
vertex 2.8980311749614710E+01 -2.6281832667217442E-03 1.4356539525301272E+02
endloop
endfacet
facet normal 4.4240118826992676E-04 9.9999990107283965E-01 -4.6211465822673927E-05
outer loop
vertex 1.3238966158023930E+01 3.9294208103394556E-03 1.3477133172101611E+02
vertex 1.3577896475594645E+01 4.1858642268259695E-03 1.4356539525301270E+02
vertex 2.8980311749614710E+01 -2.6281832667217442E-03 1.4356539525301272E+02
endloop
endfacet
facet normal 4.4240118873475177E-04 9.9999990212352674E-01 -5.8416882554683497E-06
outer loop
vertex 2.8980311749614710E+01 -2.6281832667217442E-03 1.4356539525301272E+02
vertex 1.3577896475594645E+01 4.1858642268259695E-03 1.4356539525301270E+02
vertex 2.9463107921400148E+01 -2.7901033495218463E-03 1.5241036114350891E+02
endloop
endfacet
facet normal 4.6196705252022746E-04 9.9999989245348531E-01 -4.0981218996221269E-05
outer loop
vertex 1.3577896475594645E+01 4.1858642268259695E-03 1.4356539525301270E+02
vertex 1.3804101915247800E+01 4.4438422785225322E-03 1.5241036114350891E+02
vertex 2.9463107921400148E+01 -2.7901033495218463E-03 1.5241036114350891E+02
endloop
endfacet
facet normal 4.6196705290057393E-04 9.9999989327680461E-01 5.7289793291949628E-06
outer loop
vertex 2.9463107921400148E+01 -2.7901033495218463E-03 1.5241036114350891E+02
vertex 1.3804101915247800E+01 4.4438422785225322E-03 1.5241036114350891E+02
vertex 2.9705304881844341E+01 -2.9529546282534747E-03 1.6130622939250469E+02
endloop
endfacet
facet normal 4.8495333856609388E-04 9.9999988178500754E-01 -3.5358598475180779E-05
outer loop
vertex 1.3804101915247800E+01 4.4438422785225322E-03 1.5241036114350891E+02
vertex 1.3917582476983393E+01 4.7033549654291427E-03 1.6130622939250469E+02
vertex 2.9705304881844341E+01 -2.9529546282534747E-03 1.6130622939250469E+02
endloop
endfacet
facet normal 4.8495333878875344E-04 9.9999988224414371E-01 1.8219716226794855E-05
outer loop
vertex 2.9705304881844341E+01 -2.9529546282534747E-03 1.6130622939250469E+02
vertex 1.3917582476983393E+01 4.7033549654291427E-03 1.6130622939250469E+02
vertex 2.9706902630947283E+01 -3.1167371029166319E-03 1.7025299999999999E+02
endloop
endfacet
facet normal 5.1183490074506303E-04 9.9999986858557344E-01 -2.9221054683603071E-05
outer loop
vertex 1.3917582476983393E+01 4.7033549654291427E-03 1.6130622939250469E+02
vertex 1.3918338160801424E+01 4.9644022875458028E-03 1.7025299999999999E+02
vertex 2.9706902630947283E+01 -3.1167371029166319E-03 1.7025299999999999E+02
endloop
endfacet
facet normal 7.1831120188276670E-02 9.9739937804051237E-01 -5.8966818547845487E-03
outer loop
vertex 9.5967015623098817E+00 2.4158457095130549E-03 8.2854399999999998E+01
vertex 7.3381318487100877E-01 6.4070699995688751E-01 8.2854399999999998E+01
vertex 1.0297604445039747E+01 2.6660412914206720E-03 9.1434850051991205E+01
endloop
endfacet
facet normal 7.3862419257192807E-02 9.9723494979674432E-01 -8.1729997772741671E-03
outer loop
vertex 7.3381318487100877E-01 6.4070699995688751E-01 8.2854399999999998E+01
vertex 7.8740973466764053E-01 7.0705971407456358E-01 9.1434850051991205E+01
vertex 1.0297604445039747E+01 2.6660412914206720E-03 9.1434850051991205E+01
endloop
endfacet
facet normal 7.3863646270118974E-02 9.9725151600437911E-01 -5.7944444643440902E-03
outer loop
vertex 1.0297604445039747E+01 2.6660412914206720E-03 9.1434850051991205E+01
vertex 7.8740973466764053E-01 7.0705971407456358E-01 9.1434850051991205E+01
vertex 1.0969411735664139E+01 2.9169841068828139E-03 1.0004178199972236E+02
endloop
endfacet
facet normal 7.5854474630336191E-02 9.9708548339761249E-01 -8.1631780762949739E-03
outer loop
vertex 7.8740973466764053E-01 7.0705971407456358E-01 9.1434850051991205E+01
vertex 8.3878075377269334E-01 7.7361689259080024E-01 1.0004178199972236E+02
vertex 1.0969411735664139E+01 2.9169841068828139E-03 1.0004178199972236E+02
endloop
endfacet
facet normal 7.5855780125667391E-02 9.9710264376224111E-01 -5.6761275422220793E-03
outer loop
vertex 1.0969411735664139E+01 2.9169841068828139E-03 1.0004178199972236E+02
vertex 8.3878075377269334E-01 7.7361689259080024E-01 1.0004178199972236E+02
vertex 1.1612123434183049E+01 3.1686741558994811E-03 1.0867519584319349E+02
endloop
endfacet
facet normal 7.7827973393716651E-02 9.9693347183243297E-01 -8.1522572063629211E-03
outer loop
vertex 8.3878075377269334E-01 7.7361689259080024E-01 1.0004178199972236E+02
vertex 8.8792624218616745E-01 8.4037853550559738E-01 1.0867519584319349E+02
vertex 1.1612123434183049E+01 3.1686741558994811E-03 1.0867519584319349E+02
endloop
endfacet
facet normal 7.7829363684019895E-02 9.9695128068545114E-01 -5.5438333469993353E-03
outer loop
vertex 1.1612123434183049E+01 3.1686741558994811E-03 1.0867519584319349E+02
vertex 8.8792624218616745E-01 8.4037853550559738E-01 1.0867519584319349E+02
vertex 1.2225739540596489E+01 3.4211114384706731E-03 1.1733509158240460E+02
endloop
endfacet
facet normal 7.9799779105114488E-02 9.9677767333958911E-01 -8.1403431432846059E-03
outer loop
vertex 8.8792624218616745E-01 8.4037853550559738E-01 1.0867519584319349E+02
vertex 9.3484619990806261E-01 9.0734464281895533E-01 1.1733509158240460E+02
vertex 1.2225739540596489E+01 3.4211114384706731E-03 1.1733509158240460E+02
endloop
endfacet
facet normal 7.9801350816639860E-02 9.9679730556131962E-01 -5.1842100201263848E-03
outer loop
vertex 1.2225739540596489E+01 3.4211114384706731E-03 1.1733509158240460E+02
vertex 9.3484619990806261E-01 9.0734464281895533E-01 1.1733509158240460E+02
vertex 1.2787310962535651E+01 3.6745120290629903E-03 1.2602817054751908E+02
endloop
endfacet
facet normal 8.1933549410968698E-02 9.9660478607331748E-01 -8.1113412378713955E-03
outer loop
vertex 9.3484619990806261E-01 9.0734464281895533E-01 1.1733509158240460E+02
vertex 9.7778607710190568E-01 9.7456719109509238E-01 1.2602817054751908E+02
vertex 1.2787310962535651E+01 3.6745120290629903E-03 1.2602817054751908E+02
endloop
endfacet
facet normal 8.1935500839538225E-02 9.9662852241900290E-01 -4.2616901680932401E-03
outer loop
vertex 1.2787310962535651E+01 3.6745120290629903E-03 1.2602817054751908E+02
vertex 9.7778607710190568E-01 9.7456719109509238E-01 1.2602817054751908E+02
vertex 1.3238966158023930E+01 3.9294208103394556E-03 1.3477133172101611E+02
endloop
endfacet
facet normal 8.4609572636606623E-02 9.9638175040462695E-01 -8.0391342109969281E-03
outer loop
vertex 9.7778607710190568E-01 9.7456719109509238E-01 1.2602817054751908E+02
vertex 1.0123213630776993E+00 1.0421772514835612E+00 1.3477133172101611E+02
vertex 1.3238966158023930E+01 3.9294208103394556E-03 1.3477133172101611E+02
endloop
endfacet
facet normal 8.4611848883829249E-02 9.9640855601445755E-01 -3.2900652947856876E-03
outer loop
vertex 1.3238966158023930E+01 3.9294208103394556E-03 1.3477133172101611E+02
vertex 1.0123213630776993E+00 1.0421772514835612E+00 1.3477133172101611E+02
vertex 1.3577896475594645E+01 4.1858642268259695E-03 1.4356539525301270E+02
endloop
endfacet
facet normal 8.7855933332456421E-02 9.9610137352308614E-01 -7.9616985439038019E-03
outer loop
vertex 1.0123213630776993E+00 1.0421772514835612E+00 1.3477133172101611E+02
vertex 1.0382373252049593E+00 1.1101811851968659E+00 1.4356539525301270E+02
vertex 1.3577896475594645E+01 4.1858642268259695E-03 1.4356539525301270E+02
endloop
endfacet
facet normal 8.7858490439094328E-02 9.9613036573041547E-01 -2.2759893567995877E-03
outer loop
vertex 1.3577896475594645E+01 4.1858642268259695E-03 1.4356539525301270E+02
vertex 1.0382373252049593E+00 1.1101811851968659E+00 1.4356539525301270E+02
vertex 1.3804101915247800E+01 4.4438422785225322E-03 1.5241036114350891E+02
endloop
endfacet
facet normal 9.1708389159549042E-02 9.9575473146397986E-01 -7.8794749100492157E-03
outer loop
vertex 1.0382373252049593E+00 1.1101811851968659E+00 1.4356539525301270E+02
vertex 1.0555339634836862E+00 1.1785789922350063E+00 1.5241036114350891E+02
vertex 1.3804101915247800E+01 4.4438422785225322E-03 1.5241036114350891E+02
endloop
endfacet
facet normal 9.1711170282875315E-02 9.9578492844744371E-01 -1.1989671659869488E-03
outer loop
vertex 1.3804101915247800E+01 4.4438422785225322E-03 1.5241036114350891E+02
vertex 1.0555339634836862E+00 1.1785789922350063E+00 1.5241036114350891E+02
vertex 1.3917582476983393E+01 4.7033549654291427E-03 1.6130622939250469E+02
endloop
endfacet
facet normal 9.6228647588867705E-02 9.9532876570742224E-01 -7.7907341474807330E-03
outer loop
vertex 1.0555339634836862E+00 1.1785789922350063E+00 1.5241036114350891E+02
vertex 1.0642112779138795E+00 1.2473706725979821E+00 1.6130622939250469E+02
vertex 1.3917582476983393E+01 4.7033549654291427E-03 1.6130622939250469E+02
endloop
endfacet
facet normal 9.6231567980128246E-02 9.9535897240263793E-01 -3.7170555453636392E-05
outer loop
vertex 1.3917582476983393E+01 4.7033549654291427E-03 1.6130622939250469E+02
vertex 1.0642112779138795E+00 1.2473706725979821E+00 1.6130622939250469E+02
vertex 1.3918338160801424E+01 4.9644022875458028E-03 1.7025299999999999E+02
endloop
endfacet
facet normal 1.0150701793207498E-01 9.9480507401604812E-01 -7.6935052129974233E-03
outer loop
vertex 1.0642112779138795E+00 1.2473706725979821E+00 1.6130622939250469E+02
vertex 1.0642692684955393E+00 1.3165562262857937E+00 1.7025299999999999E+02
vertex 1.3918338160801424E+01 4.9644022875458028E-03 1.7025299999999999E+02
endloop
endfacet
facet normal 3.7597950450255191E-01 -9.2661545878519036E-01 4.8170254646045449E-03
outer loop
vertex 7.3381318487100877E-01 6.4070699995688751E-01 8.2854399999999998E+01
vertex 1.0771805738905632E+01 4.7136795869846901E+00 8.2854378343902710E+01
vertex 7.8740973466764053E-01 7.0705971407456358E-01 9.1434850051991205E+01
endloop
endfacet
facet normal 3.8505449911071404E-01 -9.2273374103842243E-01 1.7189411387090469E-02
outer loop
vertex 1.0771805738905632E+01 4.7136795869846901E+00 8.2854378343902710E+01
vertex 1.1558553876880657E+01 5.2018311850813239E+00 9.1434837371260741E+01
vertex 7.8740973466764053E-01 7.0705971407456358E-01 9.1434850051991205E+01
endloop
endfacet
facet normal 3.8510687962093887E-01 -9.2285929906858066E-01 4.8379118710190922E-03
outer loop
vertex 7.8740973466764053E-01 7.0705971407456358E-01 9.1434850051991205E+01
vertex 1.1558553876880657E+01 5.2018311850813239E+00 9.1434837371260741E+01
vertex 8.3878075377269334E-01 7.7361689259080024E-01 1.0004178199972236E+02
endloop
endfacet
facet normal 3.9389122812646482E-01 -9.1898523541908450E-01 1.7771817204643287E-02
outer loop
vertex 1.1558553876880657E+01 5.2018311850813239E+00 9.1434837371260741E+01
vertex 1.2312638318018612E+01 5.6914888723131325E+00 1.0004177590676602E+02
vertex 8.3878075377269334E-01 7.7361689259080024E-01 1.0004178199972236E+02
endloop
endfacet
facet normal 3.9394877786065052E-01 -9.1911952034895050E-01 4.8649497032354104E-03
outer loop
vertex 8.3878075377269334E-01 7.7361689259080024E-01 1.0004178199972236E+02
vertex 1.2312638318018612E+01 5.6914888723131325E+00 1.0004177590676602E+02
vertex 8.8792624218616745E-01 8.4037853550559738E-01 1.0867519584319349E+02
endloop
endfacet
facet normal 4.0254241186328815E-01 -9.1521577922891639E-01 1.8430520928454888E-02
outer loop
vertex 1.2312638318018612E+01 5.6914888723131325E+00 1.0004177590676602E+02
vertex 1.3034059062319498E+01 6.1826526486801150E+00 1.0867519395041855E+02
vertex 8.8792624218616745E-01 8.4037853550559738E-01 1.0867519584319349E+02
endloop
endfacet
facet normal 4.0260596861246778E-01 -9.1536028591588703E-01 4.8970404942788488E-03
outer loop
vertex 8.8792624218616745E-01 8.4037853550559738E-01 1.0867519584319349E+02
vertex 1.3034059062319498E+01 6.1826526486801150E+00 1.0867519395041855E+02
vertex 9.3484619990806261E-01 9.0734464281895533E-01 1.1733509158240460E+02
endloop
endfacet
facet normal 4.1108291288262772E-01 -9.1139668634484716E-01 1.9155126091103852E-02
outer loop
vertex 1.3034059062319498E+01 6.1826526486801150E+00 1.0867519395041855E+02
vertex 1.3722816109783311E+01 6.6753225141822750E+00 1.1733509150221839E+02
vertex 9.3484619990806261E-01 9.0734464281895533E-01 1.1733509158240460E+02
endloop
endfacet
facet normal 4.1115317398863882E-01 -9.1155245983481958E-01 5.0180163568745674E-03
outer loop
vertex 9.3484619990806261E-01 9.0734464281895533E-01 1.1733509158240460E+02
vertex 1.3722816109783311E+01 6.6753225141822750E+00 1.1733509150221839E+02
vertex 9.7778607710190568E-01 9.7456719109509238E-01 1.2602817054751908E+02
endloop
endfacet
facet normal 4.2019801833247911E-01 -9.0718610832895308E-01 2.1142143799208521E-02
outer loop
vertex 1.3722816109783311E+01 6.6753225141822750E+00 1.1733509150221839E+02
vertex 1.4353151616244579E+01 7.1698804156030622E+00 1.2602817054751908E+02
vertex 9.7778607710190568E-01 9.7456719109509238E-01 1.2602817054751908E+02
endloop
endfacet
facet normal 4.2028593238606232E-01 -9.0737591029054743E-01 5.3565345867343907E-03
outer loop
vertex 9.7778607710190568E-01 9.7456719109509238E-01 1.2602817054751908E+02
vertex 1.4353151616244579E+01 7.1698804156030622E+00 1.2602817054751908E+02
vertex 1.0123213630776993E+00 1.0421772514835612E+00 1.3477133172101611E+02
endloop
endfacet
facet normal 4.3142597789633691E-01 -9.0176528182221505E-01 2.6286918729479497E-02
outer loop
vertex 1.4353151616244579E+01 7.1698804156030622E+00 1.2602817054751908E+02
vertex 1.4860111110480918E+01 7.6672895217230232E+00 1.3477133172101614E+02
vertex 1.0123213630776993E+00 1.0421772514835612E+00 1.3477133172101611E+02
endloop
endfacet
facet normal 4.3156809305474514E-01 -9.0206233049901940E-01 5.7037664546182596E-03
outer loop
vertex 1.0123213630776993E+00 1.0421772514835612E+00 1.3477133172101611E+02
vertex 1.4860111110480918E+01 7.6672895217230232E+00 1.3477133172101614E+02
vertex 1.0382373252049593E+00 1.1101811851968659E+00 1.4356539525301270E+02
endloop
endfacet
facet normal 4.4478258140226296E-01 -8.9507807998336797E-01 3.1681003999670533E-02
outer loop
vertex 1.4860111110480918E+01 7.6672895217230232E+00 1.3477133172101614E+02
vertex 1.5240542188657308E+01 8.1675965775452397E+00 1.4356539525301272E+02
vertex 1.0382373252049593E+00 1.1101811851968659E+00 1.4356539525301270E+02
endloop
endfacet
facet normal 4.4499780356956481E-01 -8.9551119191790240E-01 6.0547475620757393E-03
outer loop
vertex 1.0382373252049593E+00 1.1101811851968659E+00 1.4356539525301270E+02
vertex 1.5240542188657308E+01 8.1675965775452397E+00 1.4356539525301272E+02
vertex 1.0555339634836862E+00 1.1785789922350063E+00 1.5241036114350891E+02
endloop
endfacet
facet normal 4.6025812364021540E-01 -8.8700328264699990E-01 3.7250989203437522E-02
outer loop
vertex 1.5240542188657308E+01 8.1675965775452397E+00 1.4356539525301272E+02
vertex 1.5494444850773739E+01 8.6708015830697143E+00 1.5241036114350891E+02
vertex 1.0555339634836862E+00 1.1785789922350063E+00 1.5241036114350891E+02
endloop
endfacet
facet normal 4.6056831608643034E-01 -8.8760108136887539E-01 6.4145592298463236E-03
outer loop
vertex 1.0555339634836862E+00 1.1785789922350063E+00 1.5241036114350891E+02
vertex 1.5494444850773739E+01 8.6708015830697143E+00 1.5241036114350891E+02
vertex 1.0642112779138795E+00 1.2473706725979821E+00 1.6130622939250469E+02
endloop
endfacet
facet normal 4.7789768046811337E-01 -8.7735888737663947E-01 4.3071913637799525E-02
outer loop
vertex 1.5494444850773739E+01 8.6708015830697143E+00 1.5241036114350891E+02
vertex 1.5621819096830214E+01 9.1769045382964443E+00 1.6130622939250469E+02
vertex 1.0642112779138795E+00 1.2473706725979821E+00 1.6130622939250469E+02
endloop
endfacet
facet normal 4.7833057431517129E-01 -8.7815362499418748E-01 6.7876789027178060E-03
outer loop
vertex 1.0642112779138795E+00 1.2473706725979821E+00 1.6130622939250469E+02
vertex 1.5621819096830214E+01 9.1769045382964443E+00 1.6130622939250469E+02
vertex 1.0642692684955393E+00 1.3165562262857937E+00 1.7025299999999999E+02
endloop
endfacet
facet normal 4.9778980506651999E-01 -8.6590017323855017E-01 4.9215850671147615E-02
outer loop
vertex 1.5621819096830214E+01 9.1769045382964443E+00 1.6130622939250469E+02
vertex 1.5622664926826735E+01 9.6859054432254315E+00 1.7025299999999999E+02
vertex 1.0642692684955393E+00 1.3165562262857937E+00 1.7025299999999999E+02
endloop
endfacet
facet normal 1.0905209793626140E-01 -9.9294825735096082E-01 4.6490839521244443E-02
outer loop
vertex 1.0771805738905632E+01 4.7136795869846901E+00 8.2854378343902710E+01
vertex 2.1567936008439744E+01 5.8993825212312219E+00 8.2854400000000012E+01
vertex 1.1558553876880657E+01 5.2018311850813239E+00 9.1434837371260741E+01
endloop
endfacet
facet normal 1.1209636506395612E-01 -9.9243438671914364E-01 5.0083859644056990E-02
outer loop
vertex 2.1567936008439744E+01 5.8993825212312219E+00 8.2854400000000012E+01
vertex 2.3143193918247363E+01 6.5103274360067678E+00 9.1434850051991219E+01
vertex 1.1558553876880657E+01 5.2018311850813239E+00 9.1434837371260741E+01
endloop
endfacet
facet normal 1.1211504609734907E-01 -9.9259974406609208E-01 4.6647234843212732E-02
outer loop
vertex 1.1558553876880657E+01 5.2018311850813239E+00 9.1434837371260741E+01
vertex 2.3143193918247363E+01 6.5103274360067678E+00 9.1434850051991219E+01
vertex 1.2312638318018612E+01 5.6914888723131325E+00 1.0004177590676602E+02
endloop
endfacet
facet normal 1.1509492378675339E-01 -9.9207270249417034E-01 5.0447115719680385E-02
outer loop
vertex 2.3143193918247363E+01 6.5103274360067678E+00 9.1434850051991219E+01
vertex 2.4653054348594438E+01 7.1231576868437632E+00 1.0004178199972236E+02
vertex 1.2312638318018612E+01 5.6914888723131325E+00 1.0004177590676602E+02
endloop
endfacet
facet normal 1.1511522008182692E-01 -9.9224763309843356E-01 4.6830766767895819E-02
outer loop
vertex 1.2312638318018612E+01 5.6914888723131325E+00 1.0004177590676602E+02
vertex 2.4653054348594438E+01 7.1231576868437632E+00 1.0004178199972236E+02
vertex 1.3034059062319498E+01 6.1826526486801150E+00 1.0867519395041855E+02
endloop
endfacet
facet normal 1.1806342343363832E-01 -9.9170283159184902E-01 5.0857859371372813E-02
outer loop
vertex 2.4653054348594438E+01 7.1231576868437632E+00 1.0004178199972236E+02
vertex 2.6097517299480984E+01 7.7378732737422133E+00 1.0867519584319348E+02
vertex 1.3034059062319498E+01 6.1826526486801150E+00 1.0867519395041855E+02
endloop
endfacet
facet normal 1.1808555578675896E-01 -9.9188873308728287E-01 4.7037673082719965E-02
outer loop
vertex 1.3034059062319498E+01 6.1826526486801150E+00 1.0867519395041855E+02
vertex 2.6097517299480984E+01 7.7378732737422133E+00 1.0867519584319348E+02
vertex 1.3722816109783311E+01 6.6753225141822750E+00 1.1733509150221839E+02
endloop
endfacet
facet normal 1.2102722865502046E-01 -9.9132215630457732E-01 5.1310742966053466E-02
outer loop
vertex 2.6097517299480984E+01 7.7378732737422133E+00 1.0867519584319348E+02
vertex 2.7476582770907001E+01 8.3544741967021157E+00 1.1733509158240459E+02
vertex 1.3722816109783311E+01 6.6753225141822750E+00 1.1733509150221839E+02
endloop
endfacet
facet normal 1.2104932063903145E-01 -9.9150310940203201E-01 4.7630305677490332E-02
outer loop
vertex 1.3722816109783311E+01 6.6753225141822750E+00 1.1733509150221839E+02
vertex 2.7476582770907001E+01 8.3544741967021157E+00 1.1733509158240459E+02
vertex 1.4353151616244579E+01 7.1698804156030622E+00 1.2602817054751908E+02
endloop
endfacet
facet normal 1.2422758379678903E-01 -9.9086306992765716E-01 5.2515560337393741E-02
outer loop
vertex 2.7476582770907001E+01 8.3544741967021157E+00 1.1733509158240459E+02
vertex 2.8738675130313442E+01 8.9734382249935596E+00 1.2602817054751908E+02
vertex 1.4353151616244579E+01 7.1698804156030622E+00 1.2602817054751908E+02
endloop
endfacet
facet normal 1.2424873067846449E-01 -9.9103174151778195E-01 4.9176622789927738E-02
outer loop
vertex 1.4353151616244579E+01 7.1698804156030622E+00 1.2602817054751908E+02
vertex 2.8738675130313442E+01 8.9734382249935596E+00 1.2602817054751908E+02
vertex 1.4860111110480918E+01 7.6672895217230232E+00 1.3477133172101614E+02
endloop
endfacet
facet normal 1.2822596811176062E-01 -9.9018427641199924E-01 5.5616542936857694E-02
outer loop
vertex 2.8738675130313442E+01 8.9734382249935596E+00 1.2602817054751908E+02
vertex 2.9753734271764799E+01 9.5959701663677475E+00 1.3477133172101611E+02
vertex 1.4860111110480918E+01 7.6672895217230232E+00 1.3477133172101614E+02
endloop
endfacet
facet normal 1.2825893394612728E-01 -9.9043884458823794E-01 5.0799025519388662E-02
outer loop
vertex 1.4860111110480918E+01 7.6672895217230232E+00 1.3477133172101614E+02
vertex 2.9753734271764799E+01 9.5959701663677475E+00 1.3477133172101611E+02
vertex 1.5240542188657308E+01 8.1675965775452397E+00 1.4356539525301272E+02
endloop
endfacet
facet normal 1.3307175746533770E-01 -9.8935361032326208E-01 5.8918088100457490E-02
outer loop
vertex 2.9753734271764799E+01 9.5959701663677475E+00 1.3477133172101611E+02
vertex 3.0515448051246672E+01 1.0222128493174679E+01 1.4356539525301267E+02
vertex 1.5240542188657308E+01 8.1675965775452397E+00 1.4356539525301272E+02
endloop
endfacet
facet normal 1.3311959958118405E-01 -9.8970930390497813E-01 5.2484911843967572E-02
outer loop
vertex 1.5240542188657308E+01 8.1675965775452397E+00 1.4356539525301272E+02
vertex 3.0515448051246672E+01 1.0222128493174679E+01 1.4356539525301267E+02
vertex 1.5494444850773739E+01 8.6708015830697143E+00 1.5241036114350891E+02
endloop
endfacet
facet normal 1.3881460112890551E-01 -9.8835085047864135E-01 6.2394734325657779E-02
outer loop
vertex 3.0515448051246672E+01 1.0222128493174679E+01 1.4356539525301267E+02
vertex 3.1023816468759065E+01 1.0851913205414359E+01 1.5241036114350891E+02
vertex 1.5494444850773739E+01 8.6708015830697143E+00 1.5241036114350891E+02
endloop
endfacet
facet normal 1.3888065143965542E-01 -9.8882112435670022E-01 5.4267381378212513E-02
outer loop
vertex 1.5494444850773739E+01 8.6708015830697143E+00 1.5241036114350891E+02
vertex 3.1023816468759065E+01 1.0851913205414359E+01 1.5241036114350891E+02
vertex 1.5621819096830214E+01 9.1769045382964443E+00 1.6130622939250469E+02
endloop
endfacet
facet normal 1.4554078398956774E-01 -9.8714066770342623E-01 6.6114917845638735E-02
outer loop
vertex 3.1023816468759065E+01 1.0851913205414359E+01 1.5241036114350891E+02
vertex 3.1278839524301965E+01 1.1485324303086779E+01 1.6130622939250472E+02
vertex 1.5621819096830214E+01 9.1769045382964443E+00 1.6130622939250469E+02
endloop
endfacet
facet normal 1.4562955194669691E-01 -9.8774274265499062E-01 5.6181028223068558E-02
outer loop
vertex 1.5621819096830214E+01 9.1769045382964443E+00 1.6130622939250469E+02
vertex 3.1278839524301965E+01 1.1485324303086779E+01 1.6130622939250472E+02
vertex 1.5622664926826735E+01 9.6859054432254315E+00 1.7025299999999999E+02
endloop
endfacet
facet normal 1.5337687835031658E-01 -9.8567434339799365E-01 7.0154272531660747E-02
outer loop
vertex 3.1278839524301965E+01 1.1485324303086779E+01 1.6130622939250472E+02
vertex 3.1280517217875374E+01 1.2122361786191945E+01 1.7025300000000001E+02
vertex 1.5622664926826735E+01 9.6859054432254315E+00 1.7025299999999999E+02
endloop
endfacet
facet normal -6.0351227458857452E-02 -9.9481059849046816E-01 8.1912163170348926E-02
outer loop
vertex 2.1567936008439744E+01 5.8993825212312219E+00 8.2854400000000012E+01
vertex 3.2395383452301715E+01 5.2425240755382543E+00 8.2854399999999998E+01
vertex 2.3143193918247363E+01 6.5103274360067678E+00 9.1434850051991219E+01
endloop
endfacet
facet normal -6.2070840464358130E-02 -9.9485520744326139E-01 8.0064517653412479E-02
outer loop
vertex 3.2395383452301715E+01 5.2425240755382543E+00 8.2854399999999998E+01
vertex 3.4761430514591702E+01 5.7854443526662349E+00 9.1434850051991219E+01
vertex 2.3143193918247363E+01 6.5103274360067678E+00 9.1434850051991219E+01
endloop
endfacet
facet normal -6.2062507961808913E-02 -9.9472165627027720E-01 8.1713350515120214E-02
outer loop
vertex 2.3143193918247363E+01 6.5103274360067678E+00 9.1434850051991219E+01
vertex 3.4761430514591702E+01 5.7854443526662349E+00 9.1434850051991219E+01
vertex 2.4653054348594438E+01 7.1231576868437632E+00 1.0004178199972236E+02
endloop
endfacet
facet normal -6.3749300011038026E-02 -9.9477508121038827E-01 7.9740607916971407E-02
outer loop
vertex 3.4761430514591702E+01 5.7854443526662349E+00 9.1434850051991219E+01
vertex 3.7029254224641932E+01 6.3300396305141451E+00 1.0004178199972239E+02
vertex 2.4653054348594438E+01 7.1231576868437632E+00 1.0004178199972236E+02
endloop
endfacet
facet normal -6.3740281202011764E-02 -9.9463434732813416E-01 8.1484303196535462E-02
outer loop
vertex 2.4653054348594438E+01 7.1231576868437632E+00 1.0004178199972236E+02
vertex 3.7029254224641932E+01 6.3300396305141451E+00 1.0004178199972239E+02
vertex 2.6097517299480984E+01 7.7378732737422133E+00 1.0867519584319348E+02
endloop
endfacet
facet normal -6.5412696244109586E-02 -9.9469618978123941E-01 7.9376754813737377E-02
outer loop
vertex 3.7029254224641932E+01 6.3300396305141451E+00 1.0004178199972239E+02
vertex 3.9198854582452412E+01 6.8763099090819839E+00 1.0867519584319352E+02
vertex 2.6097517299480984E+01 7.7378732737422133E+00 1.0867519584319348E+02
endloop
endfacet
facet normal -6.5402904913349241E-02 -9.9454729820575871E-01 8.1228884397860870E-02
outer loop
vertex 2.6097517299480984E+01 7.7378732737422133E+00 1.0867519584319348E+02
vertex 3.9198854582452412E+01 6.8763099090819839E+00 1.0867519584319352E+02
vertex 2.7476582770907001E+01 8.3544741967021157E+00 1.1733509158240459E+02
endloop
endfacet
facet normal -6.7075210372352284E-02 -9.9461727606391881E-01 7.8977150548085309E-02
outer loop
vertex 3.9198854582452412E+01 6.8763099090819839E+00 1.0867519584319352E+02
vertex 4.1270231588023144E+01 7.4242551883697550E+00 1.1733509158240460E+02
vertex 2.7476582770907001E+01 8.3544741967021157E+00 1.1733509158240459E+02
endloop
endfacet
facet normal -6.7066759735337156E-02 -9.9449196673544527E-01 8.0546743182258240E-02
outer loop
vertex 2.7476582770907001E+01 8.3544741967021157E+00 1.1733509158240459E+02
vertex 4.1270231588023144E+01 7.4242551883697550E+00 1.1733509158240460E+02
vertex 2.8738675130313442E+01 8.9734382249935596E+00 1.2602817054751908E+02
endloop
endfacet
facet normal -6.8877871327808010E-02 -9.9457504615420389E-01 7.7950730649001501E-02
outer loop
vertex 4.1270231588023144E+01 7.4242551883697550E+00 1.1733509158240460E+02
vertex 4.3165918181047310E+01 7.9743001566236149E+00 1.2602817054751908E+02
vertex 2.8738675130313442E+01 8.9734382249935596E+00 1.2602817054751908E+02
endloop
endfacet
facet normal -6.8873219651164774E-02 -9.9450787738979562E-01 7.8807115316610776E-02
outer loop
vertex 2.8738675130313442E+01 8.9734382249935596E+00 1.2602817054751908E+02
vertex 4.3165918181047310E+01 7.9743001566236149E+00 1.2602817054751908E+02
vertex 2.9753734271764799E+01 9.5959701663677475E+00 1.3477133172101611E+02
endloop
endfacet
facet normal -7.1146455546335044E-02 -9.9461653626768820E-01 7.5340079944608007E-02
outer loop
vertex 4.3165918181047310E+01 7.9743001566236149E+00 1.2602817054751908E+02
vertex 4.4690562921899051E+01 8.5275157652899178E+00 1.3477133172101614E+02
vertex 2.9753734271764799E+01 9.5959701663677475E+00 1.3477133172101611E+02
endloop
endfacet
facet normal -7.1137562777569732E-02 -9.9449221672430010E-01 7.6971930187927293E-02
outer loop
vertex 2.9753734271764799E+01 9.5959701663677475E+00 1.3477133172101611E+02
vertex 4.4690562921899051E+01 8.5275157652899178E+00 1.3477133172101614E+02
vertex 3.0515448051246672E+01 1.0222128493174679E+01 1.4356539525301267E+02
endloop
endfacet
facet normal -7.3897616805289140E-02 -9.9462348928514521E-01 7.2548306615257060E-02
outer loop
vertex 4.4690562921899051E+01 8.5275157652899178E+00 1.3477133172101614E+02
vertex 4.5834684913946262E+01 9.0839539903355604E+00 1.4356539525301272E+02
vertex 3.0515448051246672E+01 1.0222128493174679E+01 1.4356539525301267E+02
endloop
endfacet
facet normal -7.3883882633928324E-02 -9.9443863448154146E-01 7.5053142088941913E-02
outer loop
vertex 3.0515448051246672E+01 1.0222128493174679E+01 1.4356539525301267E+02
vertex 4.5834684913946262E+01 9.0839539903355604E+00 1.4356539525301272E+02
vertex 3.1023816468759065E+01 1.0851913205414359E+01 1.5241036114350891E+02
endloop
endfacet
facet normal -7.7162029167021765E-02 -9.9458673142249832E-01 6.9593497779166652E-02
outer loop
vertex 4.5834684913946262E+01 9.0839539903355604E+00 1.4356539525301272E+02
vertex 4.6598284157188921E+01 9.6436148317605497E+00 1.5241036114350891E+02
vertex 3.1023816468759065E+01 1.0851913205414359E+01 1.5241036114350891E+02
endloop
endfacet
facet normal -7.7143129652517198E-02 -9.9434312447540918E-01 7.3011563165679430E-02
outer loop
vertex 3.1023816468759065E+01 1.0851913205414359E+01 1.5241036114350891E+02
vertex 4.6598284157188921E+01 9.6436148317605497E+00 1.5241036114350891E+02
vertex 3.1278839524301965E+01 1.1485324303086779E+01 1.6130622939250472E+02
endloop
endfacet
facet normal -8.0992844426551913E-02 -9.9449951543256709E-01 6.6414403227656668E-02
outer loop
vertex 4.6598284157188921E+01 9.6436148317605497E+00 1.5241036114350891E+02
vertex 4.6981360651627043E+01 1.0206498289564884E+01 1.6130622939250469E+02
vertex 3.1278839524301965E+01 1.1485324303086779E+01 1.6130622939250472E+02
endloop
endfacet
facet normal -8.0968333580412624E-02 -9.9419855026976878E-01 7.0805166468988281E-02
outer loop
vertex 3.1278839524301965E+01 1.1485324303086779E+01 1.6130622939250472E+02
vertex 4.6981360651627043E+01 1.0206498289564884E+01 1.6130622939250469E+02
vertex 3.1280517217875374E+01 1.2122361786191945E+01 1.7025300000000001E+02
endloop
endfacet
facet normal -8.5467648756355485E-02 -9.9435084563540377E-01 6.2941852532458181E-02
outer loop
vertex 4.6981360651627043E+01 1.0206498289564884E+01 1.6130622939250469E+02
vertex 4.6983914397260619E+01 1.0772604363748560E+01 1.7025299999999999E+02
vertex 3.1280517217875374E+01 1.2122361786191945E+01 1.7025300000000001E+02
endloop
endfacet
facet normal -1.8992970091618525E-01 -9.7514805276147665E-01 1.1407446649179899E-01
outer loop
vertex 3.2395383452301715E+01 5.2425240755382543E+00 8.2854399999999998E+01
vertex 4.3004423726342040E+01 3.1762000537139414E+00 8.2854400000000012E+01
vertex 3.4761430514591702E+01 5.7854443526662349E+00 9.1434850051991219E+01
endloop
endfacet
facet normal -1.9524196256294421E-01 -9.7469774512205398E-01 1.0883419365508702E-01
outer loop
vertex 4.3004423726342040E+01 3.1762000537139414E+00 8.2854400000000012E+01
vertex 4.6145349009757126E+01 3.5051286345105783E+00 9.1434850051991219E+01
vertex 3.4761430514591702E+01 5.7854443526662349E+00 9.1434850051991219E+01
endloop
endfacet
facet normal -1.9514923316389465E-01 -9.7423481627738540E-01 1.1306325463435465E-01
outer loop
vertex 3.4761430514591702E+01 5.7854443526662349E+00 9.1434850051991219E+01
vertex 4.6145349009757126E+01 3.5051286345105783E+00 9.1434850051991219E+01
vertex 3.7029254224641932E+01 6.3300396305141451E+00 1.0004178199972239E+02
endloop
endfacet
facet normal -2.0035610396239545E-01 -9.7381735207533782E-01 1.0741134205468018E-01
outer loop
vertex 4.6145349009757126E+01 3.5051286345105783E+00 9.1434850051991219E+01
vertex 4.9155874673114866E+01 3.8350723534278885E+00 1.0004178199972239E+02
vertex 3.7029254224641932E+01 6.3300396305141451E+00 1.0004178199972239E+02
endloop
endfacet
facet normal -2.0025605271552729E-01 -9.7333105972701361E-01 1.1191140031955989E-01
outer loop
vertex 3.7029254224641932E+01 6.3300396305141451E+00 1.0004178199972239E+02
vertex 4.9155874673114866E+01 3.8350723534278885E+00 1.0004178199972239E+02
vertex 3.9198854582452412E+01 6.8763099090819839E+00 1.0867519584319352E+02
endloop
endfacet
facet normal -2.0541406736854406E-01 -9.7293699062318717E-01 1.0582378373601758E-01
outer loop
vertex 4.9155874673114866E+01 3.8350723534278885E+00 1.0004178199972239E+02
vertex 5.2036000716415252E+01 4.1660312104658725E+00 1.0867519584319352E+02
vertex 3.9198854582452412E+01 6.8763099090819839E+00 1.0867519584319352E+02
endloop
endfacet
facet normal -2.0530582936146274E-01 -9.7242432485384722E-01 1.1063656205224813E-01
outer loop
vertex 3.9198854582452412E+01 6.8763099090819839E+00 1.0867519584319352E+02
vertex 5.2036000716415252E+01 4.1660312104658725E+00 1.0867519584319352E+02
vertex 4.1270231588023144E+01 7.4242551883697550E+00 1.1733509158240460E+02
endloop
endfacet
facet normal -2.1045833679066195E-01 -9.7204570063089546E-01 1.0408863703738110E-01
outer loop
vertex 5.2036000716415252E+01 4.1660312104658725E+00 1.0867519584319352E+02
vertex 5.4785727139658306E+01 4.4980052056245317E+00 1.1733509158240460E+02
vertex 4.1270231588023144E+01 7.4242551883697550E+00 1.1733509158240460E+02
endloop
endfacet
facet normal -2.1038469427573414E-01 -9.7170556732417634E-01 1.0736186867648359E-01
outer loop
vertex 4.1270231588023144E+01 7.4242551883697550E+00 1.1733509158240460E+02
vertex 5.4785727139658306E+01 4.4980052056245317E+00 1.1733509158240460E+02
vertex 4.3165918181047310E+01 7.9743001566236149E+00 1.2602817054751908E+02
endloop
endfacet
facet normal -2.1595646441775374E-01 -9.7129438505950971E-01 9.9749802145429126E-02
outer loop
vertex 5.4785727139658306E+01 4.4980052056245317E+00 1.1733509158240460E+02
vertex 5.7302219227077558E+01 4.8312514158871549E+00 1.2602817054751908E+02
vertex 4.3165918181047310E+01 7.9743001566236149E+00 1.2602817054751908E+02
endloop
endfacet
facet normal -2.1597006335605440E-01 -9.7135554818537317E-01 9.9122806374087366E-02
outer loop
vertex 4.3165918181047310E+01 7.9743001566236149E+00 1.2602817054751908E+02
vertex 5.7302219227077558E+01 4.8312514158871549E+00 1.2602817054751908E+02
vertex 4.4690562921899051E+01 8.5275157652899178E+00 1.3477133172101614E+02
endloop
endfacet
facet normal -2.2294116323971974E-01 -9.7077689281884472E-01 8.8822644085334024E-02
outer loop
vertex 5.7302219227077558E+01 4.8312514158871549E+00 1.2602817054751908E+02
vertex 5.9326155020554076E+01 5.1664181214205911E+00 1.3477133172101611E+02
vertex 4.4690562921899051E+01 8.5275157652899178E+00 1.3477133172101614E+02
endloop
endfacet
facet normal -2.2290904816459214E-01 -9.7063705066321948E-01 9.0417211448718574E-02
outer loop
vertex 4.4690562921899051E+01 8.5275157652899178E+00 1.3477133172101614E+02
vertex 5.9326155020554076E+01 5.1664181214205911E+00 1.3477133172101611E+02
vertex 4.5834684913946262E+01 9.0839539903355604E+00 1.4356539525301272E+02
endloop
endfacet
facet normal -2.3133069572734069E-01 -9.6981290968735978E-01 7.7129951497726140E-02
outer loop
vertex 5.9326155020554076E+01 5.1664181214205911E+00 1.3477133172101611E+02
vertex 6.0844948973321067E+01 5.5035367848916206E+00 1.4356539525301270E+02
vertex 4.5834684913946262E+01 9.0839539903355604E+00 1.4356539525301272E+02
endloop
endfacet
facet normal -2.3125364977083232E-01 -9.6948990818068093E-01 8.1308470674860009E-02
outer loop
vertex 4.5834684913946262E+01 9.0839539903355604E+00 1.4356539525301272E+02
vertex 6.0844948973321067E+01 5.5035367848916206E+00 1.4356539525301270E+02
vertex 4.6598284157188921E+01 9.6436148317605497E+00 1.5241036114350891E+02
endloop
endfacet
facet normal -2.4118603123493507E-01 -9.6831572878382888E-01 6.4760695850053063E-02
outer loop
vertex 6.0844948973321067E+01 5.5035367848916206E+00 1.4356539525301270E+02
vertex 6.1858601085378503E+01 5.8426074063002416E+00 1.5241036114350888E+02
vertex 4.6598284157188921E+01 9.6436148317605497E+00 1.5241036114350891E+02
endloop
endfacet
facet normal -2.4107267864975523E-01 -9.6786063986111648E-01 7.1622241072603690E-02
outer loop
vertex 4.6598284157188921E+01 9.6436148317605497E+00 1.5241036114350891E+02
vertex 6.1858601085378503E+01 5.8426074063002416E+00 1.5241036114350888E+02
vertex 4.6981360651627043E+01 1.0206498289564884E+01 1.6130622939250469E+02
endloop
endfacet
facet normal -2.5262774385022124E-01 -9.6619307280958144E-01 5.1479793044704694E-02
outer loop
vertex 6.1858601085378503E+01 5.8426074063002416E+00 1.5241036114350888E+02
vertex 6.2367111356726440E+01 6.1836299856464585E+00 1.6130622939250469E+02
vertex 4.6981360651627043E+01 1.0206498289564884E+01 1.6130622939250469E+02
endloop
endfacet
facet normal -2.5248938775382124E-01 -9.6566391991494926E-01 6.1174364289261214E-02
outer loop
vertex 4.6981360651627043E+01 1.0206498289564884E+01 1.6130622939250469E+02
vertex 6.2367111356726440E+01 6.1836299856464585E+00 1.6130622939250469E+02
vertex 4.6983914397260619E+01 1.0772604363748560E+01 1.7025299999999999E+02
endloop
endfacet
facet normal -2.6582982685149925E-01 -9.6330856496273654E-01 3.7028527185603045E-02
outer loop
vertex 6.2367111356726440E+01 6.1836299856464585E+00 1.6130622939250469E+02
vertex 6.2370479787364843E+01 6.5266045229302687E+00 1.7025299999999999E+02
vertex 4.6983914397260619E+01 1.0772604363748560E+01 1.7025299999999999E+02
endloop
endfacet
facet normal -2.9477188915399771E-01 -9.4463765076002948E-01 1.4411537784412867E-01
outer loop
vertex 4.3004423726342040E+01 3.1762000537139414E+00 8.2854400000000012E+01
vertex 5.3183000000000000E+01 1.2312400000000001E-16 8.2854399999999998E+01
vertex 4.6145349009757126E+01 3.5051286345105783E+00 9.1434850051991219E+01
endloop
endfacet
facet normal -3.0269278622113654E-01 -9.4318660424173251E-01 1.3702593458405921E-01
outer loop
vertex 5.3183000000000000E+01 1.2312400000000001E-16 8.2854399999999998E+01
vertex 5.7067282153546202E+01 1.0452226210740022E-16 9.1434850051991219E+01
vertex 4.6145349009757126E+01 3.5051286345105783E+00 9.1434850051991219E+01
endloop
endfacet
facet normal -3.0248156361203277E-01 -9.4252843746509118E-01 1.4193325277902044E-01
outer loop
vertex 4.6145349009757126E+01 3.5051286345105783E+00 9.1434850051991219E+01
vertex 5.7067282153546202E+01 1.0452226210740022E-16 9.1434850051991219E+01
vertex 4.9155874673114866E+01 3.8350723534278885E+00 1.0004178199972239E+02
endloop
endfacet
facet normal -3.1022966852225409E-01 -9.4114269558184593E-01 1.3419381253064336E-01
outer loop
vertex 5.7067282153546202E+01 1.0452226210740022E-16 9.1434850051991219E+01
vertex 6.0790320693862306E+01 9.0778952509503712E-17 1.0004178199972239E+02
vertex 4.9155874673114866E+01 3.8350723534278885E+00 1.0004178199972239E+02
endloop
endfacet
facet normal -3.1000154884047570E-01 -9.4045064967518954E-01 1.3946904761279524E-01
outer loop
vertex 4.9155874673114866E+01 3.8350723534278885E+00 1.0004178199972239E+02
vertex 6.0790320693862306E+01 9.0778952509503712E-17 1.0004178199972239E+02
vertex 5.2036000716415252E+01 4.1660312104658725E+00 1.0867519584319352E+02
endloop
endfacet
facet normal -3.1766008605306534E-01 -9.3910437122623203E-01 1.3105361373324456E-01
outer loop
vertex 6.0790320693862306E+01 9.0778952509503712E-17 1.0004178199972239E+02
vertex 6.4352115620948311E+01 8.1894071206310509E-17 1.0867519584319352E+02
vertex 5.2036000716415252E+01 4.1660312104658725E+00 1.0867519584319352E+02
endloop
endfacet
facet normal -3.1741307982438854E-01 -9.3837414215668591E-01 1.3675856860943039E-01
outer loop
vertex 5.2036000716415252E+01 4.1660312104658725E+00 1.0867519584319352E+02
vertex 6.4352115620948311E+01 8.1894071206310509E-17 1.0867519584319352E+02
vertex 5.4785727139658306E+01 4.4980052056245317E+00 1.1733509158240460E+02
endloop
endfacet
facet normal -3.2504477034358764E-01 -9.3704559579030400E-01 1.2763795940972522E-01
outer loop
vertex 6.4352115620948311E+01 8.1894071206310509E-17 1.0867519584319352E+02
vertex 6.7752666934804211E+01 7.7867618197820594E-17 1.1733509158240460E+02
vertex 5.4785727139658306E+01 4.4980052056245317E+00 1.1733509158240460E+02
endloop
endfacet
facet normal -3.2494523609503290E-01 -9.3675865645840850E-01 1.2997620201167956E-01
outer loop
vertex 5.4785727139658306E+01 4.4980052056245317E+00 1.1733509158240460E+02
vertex 6.7752666934804211E+01 7.7867618197820594E-17 1.1733509158240460E+02
vertex 5.7302219227077558E+01 4.8312514158871549E+00 1.2602817054751908E+02
endloop
endfacet
facet normal -3.3316921610464140E-01 -9.3529236099173640E-01 1.1927477902189706E-01
outer loop
vertex 6.7752666934804211E+01 7.7867618197820594E-17 1.1733509158240460E+02
vertex 7.0864794413767555E+01 7.5593561496036311E-17 1.2602817054751908E+02
vertex 5.7302219227077558E+01 4.8312514158871549E+00 1.2602817054751908E+02
endloop
endfacet
facet normal -3.3341307374812529E-01 -9.3597693261508919E-01 1.1306150479396547E-01
outer loop
vertex 5.7302219227077558E+01 4.8312514158871549E+00 1.2602817054751908E+02
vertex 7.0864794413767555E+01 7.5593561496036311E-17 1.2602817054751908E+02
vertex 5.9326155020554076E+01 5.1664181214205911E+00 1.3477133172101611E+02
endloop
endfacet
facet normal -3.4362947647659997E-01 -9.3393860450322808E-01 9.8374112016225951E-02
outer loop
vertex 7.0864794413767555E+01 7.5593561496036311E-17 1.2602817054751908E+02
vertex 7.3367783172114329E+01 6.7239309829572663E-17 1.3477133172101614E+02
vertex 5.9326155020554076E+01 5.1664181214205911E+00 1.3477133172101611E+02
endloop
endfacet
facet normal -3.4373674661149733E-01 -9.3423015027257861E-01 9.5179174983915454E-02
outer loop
vertex 5.9326155020554076E+01 5.1664181214205911E+00 1.3477133172101611E+02
vertex 7.3367783172114329E+01 6.7239309829572663E-17 1.3477133172101614E+02
vertex 6.0844948973321067E+01 5.5035367848916206E+00 1.4356539525301270E+02
endloop
endfacet
facet normal -3.5594736964476198E-01 -9.3140841552691889E-01 7.6025216399624659E-02
outer loop
vertex 7.3367783172114329E+01 6.7239309829572663E-17 1.3477133172101614E+02
vertex 7.5246068109910965E+01 5.2424727846737231E-17 1.4356539525301272E+02
vertex 6.0844948973321067E+01 5.5035367848916206E+00 1.4356539525301270E+02
endloop
endfacet
facet normal -3.5593454324350171E-01 -9.3137485264910747E-01 7.6494998391352112E-02
outer loop
vertex 6.0844948973321067E+01 5.5035367848916206E+00 1.4356539525301270E+02
vertex 7.5246068109910965E+01 5.2424727846737231E-17 1.4356539525301272E+02
vertex 6.1858601085378503E+01 5.8426074063002416E+00 1.5241036114350888E+02
endloop
endfacet
facet normal -3.7012492910225725E-01 -9.2749974944665858E-01 5.2457140919370426E-02
outer loop
vertex 7.5246068109910965E+01 5.2424727846737231E-17 1.4356539525301272E+02
vertex 7.6499649227157448E+01 3.1149815547529946E-17 1.5241036114350891E+02
vertex 6.1858601085378503E+01 5.8426074063002416E+00 1.5241036114350888E+02
endloop
endfacet
facet normal -3.7003897830344212E-01 -9.2728436448310270E-01 5.6699752391991577E-02
outer loop
vertex 6.1858601085378503E+01 5.8426074063002416E+00 1.5241036114350888E+02
vertex 7.6499649227157448E+01 3.1149815547529946E-17 1.5241036114350891E+02
vertex 6.2367111356726440E+01 6.1836299856464585E+00 1.6130622939250469E+02
endloop
endfacet
facet normal -3.8622971383650462E-01 -9.2199843280652061E-01 2.7303810211974346E-02
outer loop
vertex 7.6499649227157448E+01 3.1149815547529946E-17 1.5241036114350891E+02
vertex 7.7128526523853807E+01 3.4145729319508781E-18 1.6130622939250469E+02
vertex 6.2367111356726440E+01 6.1836299856464585E+00 1.6130622939250469E+02
endloop
endfacet
facet normal -3.8613047974299669E-01 -9.2176154352685735E-01 3.5481114531938564E-02
outer loop
vertex 6.2367111356726440E+01 6.1836299856464585E+00 1.6130622939250469E+02
vertex 7.7128526523853807E+01 3.4145729319508781E-18 1.6130622939250469E+02
vertex 6.2370479787364843E+01 6.5266045229302687E+00 1.7025299999999999E+02
endloop
endfacet
facet normal -4.0435888934253583E-01 -9.1460037887067502E-01 1.8862472876616721E-04
outer loop
vertex 7.7128526523853807E+01 3.4145729319508781E-18 1.6130622939250469E+02
vertex 7.7132700000000000E+01 -3.0781000000000003E-17 1.7025299999999999E+02
vertex 6.2370479787364843E+01 6.5266045229302687E+00 1.7025299999999999E+02
endloop
endfacet
endsolid Created by writeSTL.m 14-Dec-2022 20:17:52
